<svg width="49" height="48" viewBox="0 0 49 48" fill="none" xmlns="http://www.w3.org/2000/svg">
<rect x="0.633789" width="48" height="48" rx="24" fill="#33353D"/>
<path d="M30.6668 28.618L34.9468 32.899L33.5328 34.314L29.2528 30.033C27.6586 31.3097 25.6762 32.0037 23.6338 32C21.9571 32.0007 20.3136 31.533 18.8886 30.6496C17.4636 29.7661 16.3138 28.5021 15.5688 27H21.6338L20.3298 29.173C21.3458 29.7176 22.481 30.0017 23.6338 30C25.4542 30.0029 27.2037 29.2941 28.5088 28.025L28.6588 27.875C29.9279 26.5699 30.6367 24.8204 30.6338 23C30.6338 22.305 30.5328 21.634 30.3438 21H32.4108C32.5568 21.643 32.6338 22.313 32.6338 23C32.6373 25.0421 31.9433 27.0241 30.6668 28.618ZM31.6988 19H25.6338L26.9378 16.827C25.9218 16.2824 24.7866 15.9983 23.6338 16C19.7658 16 16.6338 19.132 16.6338 23C16.6338 23.695 16.7348 24.366 16.9238 25H14.8568C14.7082 24.3437 14.6334 23.6729 14.6338 23C14.6338 18.027 18.6608 14 23.6338 14C25.3104 13.9993 26.954 14.467 28.379 15.3504C29.804 16.2339 30.9538 17.4979 31.6988 19Z" fill="white"/>
</svg>
