<svg width="49" height="48" viewBox="0 0 49 48" fill="none" xmlns="http://www.w3.org/2000/svg">
<rect x="0.633789" width="48" height="48" rx="24" fill="#33353D"/>
<path d="M17.9638 15.271C18.6309 15.033 19.3544 15.0029 20.0389 15.1848C20.7234 15.3667 21.3366 15.7519 21.7975 16.2896C22.2584 16.8274 22.5453 17.4923 22.6204 18.1965C22.6954 18.9008 22.555 19.6112 22.2178 20.234L32.9268 30.944L31.5128 32.358L20.8028 21.648C20.1799 21.9839 19.4698 22.1232 18.7661 22.0475C18.0625 21.9718 17.3983 21.6847 16.861 21.224C16.3238 20.7633 15.9387 20.1506 15.7566 19.4668C15.5745 18.7829 15.6038 18.0599 15.8408 17.393L18.0778 19.63C18.2162 19.7733 18.3817 19.8875 18.5647 19.9661C18.7477 20.0448 18.9445 20.0861 19.1437 20.0879C19.3429 20.0896 19.5404 20.0516 19.7247 19.9762C19.9091 19.9008 20.0766 19.7894 20.2174 19.6486C20.3582 19.5077 20.4696 19.3403 20.545 19.1559C20.6205 18.9716 20.6584 18.7741 20.6567 18.5749C20.655 18.3757 20.6136 18.1789 20.535 17.9959C20.4564 17.8129 20.3421 17.6474 20.1988 17.509L17.9628 15.27L17.9638 15.271ZM28.3308 17.155L31.5128 15.387L32.9268 16.801L31.1588 19.983L29.3908 20.337L27.2708 22.458L25.8558 21.044L27.9768 18.923L28.3308 17.155ZM21.6128 25.287L23.0268 26.701L17.7238 32.004C17.5435 32.1848 17.3009 32.2898 17.0456 32.2974C16.7904 32.3051 16.5419 32.2148 16.3511 32.0451C16.1603 31.8754 16.0417 31.6391 16.0195 31.3848C15.9973 31.1304 16.0733 30.8772 16.2318 30.677L16.3098 30.59L21.6128 25.287Z" fill="white"/>
</svg>
