<svg width="100" height="100" viewBox="0 0 100 100" fill="none" xmlns="http://www.w3.org/2000/svg">
<path d="M80.5982 25.7993V24.0579C80.5982 22.2652 79.1396 20.8068 77.3471 20.8068H49.2237C48.6367 20.0522 47.7228 19.5639 46.6948 19.5639H39.0615C37.2944 19.5639 35.8567 21.0017 35.8567 22.769V56.6702C35.8567 58.4376 37.2944 59.8753 39.0615 59.8753H79.8043C81.5716 59.8753 83.0094 58.4376 83.0094 56.6702V28.9008C83.0096 27.4079 81.982 26.1539 80.5982 25.7993ZM77.3471 22.3942C78.2644 22.3942 79.0108 23.1404 79.0108 24.0579V25.6957H49.9001V22.769C49.9001 22.642 49.8908 22.5174 49.8763 22.3942H77.3471ZM81.4222 56.6702C81.4222 57.5623 80.6966 58.2879 79.8045 58.2879H39.0617C38.1698 58.2879 37.4442 57.5623 37.4442 56.6702V22.769C37.4442 21.8769 38.1698 21.1513 39.0617 21.1513H46.695C47.5871 21.1513 48.3127 21.8769 48.3127 22.769V26.4894C48.3127 26.9277 48.6681 27.2831 49.1064 27.2831H79.8045C80.6966 27.2831 81.4222 28.0089 81.4222 28.9008V56.6702ZM59.4332 6.31733C40.5477 6.31733 25.1834 21.6817 25.1834 40.5672C25.1834 59.4525 40.5479 74.8168 59.4332 74.8168C78.3185 74.8168 93.6829 59.4525 93.6829 40.5672C93.6829 21.6817 78.3183 6.31733 59.4332 6.31733ZM59.4332 73.2294C41.423 73.2294 26.7708 58.5772 26.7708 40.5672C26.7708 22.5571 41.423 7.9047 59.4332 7.9047C77.4433 7.9047 92.0955 22.5571 92.0955 40.5672C92.0955 58.5772 77.4431 73.2294 59.4332 73.2294ZM59.4332 0C37.0642 0 18.8659 18.1984 18.8659 40.5672C18.8659 48.6014 21.2138 56.0976 25.2592 62.406L2.5507 85.1143C-0.850234 88.515 -0.850234 94.0486 2.5507 97.4495C4.25097 99.1498 6.4846 100 8.71822 100C10.952 100 13.1857 99.1498 14.8859 97.4495L37.5944 74.741C43.9026 78.7864 51.399 81.1341 59.4332 81.1341C81.8018 81.1341 100 62.936 100 40.5672C100 18.1984 81.8018 0 59.4332 0ZM13.7635 96.327C10.9812 99.1089 6.45483 99.1091 3.67297 96.327C0.891108 93.5452 0.891108 89.0186 3.67297 86.2367L18.6752 71.2345L28.7655 81.3248L13.7635 96.327ZM29.8879 80.2026L19.7976 70.1123L26.1614 63.7485C28.9054 67.675 32.3254 71.0948 36.2519 73.8388L29.8879 80.2026ZM59.4332 79.5468C37.9397 79.5468 20.4534 62.0605 20.4534 40.5672C20.4532 19.0736 37.9395 1.58737 59.4332 1.58737C80.9266 1.58737 98.4128 19.0736 98.4128 40.5672C98.4128 62.0605 80.9266 79.5468 59.4332 79.5468Z" fill="#756455"/>
</svg>
