<svg width="32" height="32" viewBox="0 0 32 32" fill="none" xmlns="http://www.w3.org/2000/svg">
<path d="M9.33333 10.6667V8C9.33333 6.23189 10.0357 4.5362 11.286 3.28596C12.5362 2.03571 14.2319 1.33334 16 1.33334C17.7681 1.33334 19.4638 2.03571 20.714 3.28596C21.9643 4.5362 22.6667 6.23189 22.6667 8V10.6667H26.6667C27.0203 10.6667 27.3594 10.8071 27.6095 11.0572C27.8595 11.3072 28 11.6464 28 12V28C28 28.3536 27.8595 28.6928 27.6095 28.9428C27.3594 29.1929 27.0203 29.3333 26.6667 29.3333H5.33333C4.97971 29.3333 4.64057 29.1929 4.39052 28.9428C4.14048 28.6928 4 28.3536 4 28V12C4 11.6464 4.14048 11.3072 4.39052 11.0572C4.64057 10.8071 4.97971 10.6667 5.33333 10.6667H9.33333ZM9.33333 13.3333H6.66667V26.6667H25.3333V13.3333H22.6667V16H20V13.3333H12V16H9.33333V13.3333ZM12 10.6667H20V8C20 6.93914 19.5786 5.92172 18.8284 5.17158C18.0783 4.42143 17.0609 4 16 4C14.9391 4 13.9217 4.42143 13.1716 5.17158C12.4214 5.92172 12 6.93914 12 8V10.6667Z" fill="#24252B"/>
</svg>
