<svg width="32" height="32" viewBox="0 0 32 32" fill="none" xmlns="http://www.w3.org/2000/svg">
<path d="M12.456 25.0427L9.88133 24.352L10.9307 20.4333C9.35996 19.854 7.90016 19.0098 6.61467 17.9373L3.744 20.8093L1.85733 18.9227L4.72933 16.052C3.1081 14.1103 2.01878 11.781 1.568 9.292L4.192 8.81333C5.204 14.416 10.1053 18.6667 16 18.6667C21.8933 18.6667 26.796 14.416 27.808 8.81333L30.432 9.29066C29.9818 11.78 28.893 14.1098 27.272 16.052L30.1427 18.9227L28.256 20.8093L25.3853 17.9373C24.0998 19.0098 22.64 19.854 21.0693 20.4333L22.1187 24.3533L19.544 25.0427L18.4933 21.1227C16.8431 21.4054 15.1569 21.4054 13.5067 21.1227L12.456 25.0427Z" fill="#24252B"/>
</svg>
