<svg width="32" height="32" viewBox="0 0 32 32" fill="none" xmlns="http://www.w3.org/2000/svg">
<path d="M16 29.3333C8.63599 29.3333 2.66666 23.364 2.66666 16C2.66666 8.636 8.63599 2.66666 16 2.66666C23.364 2.66666 29.3333 8.636 29.3333 16C29.3333 23.364 23.364 29.3333 16 29.3333ZM16 26.6667C18.829 26.6667 21.5421 25.5429 23.5425 23.5425C25.5429 21.5421 26.6667 18.829 26.6667 16C26.6667 13.171 25.5429 10.4579 23.5425 8.45753C21.5421 6.45714 18.829 5.33333 16 5.33333C13.171 5.33333 10.4579 6.45714 8.45752 8.45753C6.45713 10.4579 5.33332 13.171 5.33332 16C5.33332 18.829 6.45713 21.5421 8.45752 23.5425C10.4579 25.5429 13.171 26.6667 16 26.6667ZM12 10.6667H20L23.3333 15.3333L16 22.6667L8.66666 15.3333L12 10.6667ZM13.3733 13.3333L12.1467 15.0533L16 18.9067L19.8533 15.0533L18.6267 13.3333H13.3733Z" fill="#24252B"/>
</svg>
