<svg width="28" height="28" viewBox="0 0 28 28" fill="none" xmlns="http://www.w3.org/2000/svg">
<path d="M14 27.3333C6.63601 27.3333 0.666672 21.364 0.666672 14C0.666672 6.636 6.63601 0.666664 14 0.666664C21.364 0.666664 27.3333 6.636 27.3333 14C27.3333 21.364 21.364 27.3333 14 27.3333ZM14 24.6667C16.829 24.6667 19.5421 23.5429 21.5425 21.5425C23.5429 19.5421 24.6667 16.829 24.6667 14C24.6667 11.171 23.5429 8.45791 21.5425 6.45753C19.5421 4.45714 16.829 3.33333 14 3.33333C11.171 3.33333 8.45792 4.45714 6.45753 6.45753C4.45714 8.45791 3.33334 11.171 3.33334 14C3.33334 16.829 4.45714 19.5421 6.45753 21.5425C8.45792 23.5429 11.171 24.6667 14 24.6667ZM15.3333 14H20.6667V16.6667H12.6667V7.33333H15.3333V14Z" fill="#24252B"/>
</svg>
