<svg width="22" height="16" viewBox="0 0 22 16" fill="none" xmlns="http://www.w3.org/2000/svg">
<path d="M11 14.294C9.89111 14.9455 8.62977 15.2925 7.34366 15.2998C6.05755 15.3072 4.79232 14.9746 3.67606 14.3358C2.55979 13.697 1.63212 12.7746 0.98693 11.662C0.341744 10.5494 0.00195313 9.28608 0.00195312 7.99995C0.00195313 6.71382 0.341744 5.45052 0.98693 4.33792C1.63212 3.22532 2.55979 2.30293 3.67606 1.66411C4.79232 1.02529 6.05755 0.692723 7.34366 0.70007C8.62977 0.707418 9.89111 1.05442 11 1.70595C12.1089 1.05442 13.3702 0.707418 14.6563 0.70007C15.9425 0.692723 17.2077 1.02529 18.3239 1.66411C19.4402 2.30293 20.3679 3.22532 21.0131 4.33792C21.6583 5.45052 21.9981 6.71382 21.9981 7.99995C21.9981 9.28608 21.6583 10.5494 21.0131 11.662C20.3679 12.7746 19.4402 13.697 18.3239 14.3358C17.2077 14.9746 15.9425 15.3072 14.6563 15.2998C13.3702 15.2925 12.1089 14.9455 11 14.294ZM12.702 12.91C13.5067 13.237 14.3794 13.3612 15.2434 13.2718C16.1074 13.1823 16.9361 12.8819 17.6567 12.3969C18.3773 11.9119 18.9676 11.2573 19.3758 10.4905C19.784 9.72383 19.9975 8.86855 19.9975 7.99995C19.9975 7.13136 19.784 6.27607 19.3758 5.50936C18.9676 4.74264 18.3773 4.088 17.6567 3.60302C16.9361 3.11805 16.1074 2.81761 15.2434 2.72814C14.3794 2.63867 13.5067 2.76292 12.702 3.08995C13.9255 4.43222 14.6026 6.18371 14.6 7.99995C14.6 9.88995 13.881 11.614 12.702 12.91ZM9.298 3.08995C8.49332 2.76292 7.6206 2.63867 6.75662 2.72814C5.89265 2.81761 5.0639 3.11805 4.34331 3.60302C3.62271 4.088 3.03236 4.74264 2.62418 5.50936C2.21601 6.27607 2.00253 7.13136 2.00253 7.99995C2.00253 8.86855 2.21601 9.72383 2.62418 10.4905C3.03236 11.2573 3.62271 11.9119 4.34331 12.3969C5.0639 12.8819 5.89265 13.1823 6.75662 13.2718C7.6206 13.3612 8.49332 13.237 9.298 12.91C8.07446 11.5677 7.3974 9.81619 7.4 7.99995C7.4 6.10995 8.119 4.38595 9.298 3.08995ZM11 4.20495C10.4928 4.69819 10.0899 5.28826 9.81504 5.94015C9.5402 6.59204 9.39906 7.29249 9.4 7.99995C9.4 9.48795 10.013 10.832 11 11.795C11.5072 11.3017 11.9101 10.7116 12.185 10.0598C12.4598 9.40786 12.6009 8.70741 12.6 7.99995C12.6009 7.29249 12.4598 6.59204 12.185 5.94015C11.9101 5.28826 11.5072 4.69819 11 4.20495Z" fill="#24252B"/>
</svg>
