<svg width="21" height="14" viewBox="0 0 21 14" fill="none" xmlns="http://www.w3.org/2000/svg">
<path d="M13.2123 1.97422H7.58794V12.0812H13.2123V1.97422Z" fill="#FF5F00"/>
<path d="M7.94508 7.02769C7.94419 6.05432 8.16477 5.0935 8.59012 4.21798C9.01546 3.34246 9.63443 2.57518 10.4002 1.97422C9.45191 1.2289 8.31309 0.765396 7.11387 0.636686C5.91464 0.507976 4.7034 0.71925 3.61858 1.24637C2.53375 1.77349 1.61912 2.59518 0.979228 3.61752C0.339335 4.63986 0 5.82161 0 7.02769C0 8.23376 0.339335 9.41551 0.979228 10.4379C1.61912 11.4602 2.53375 12.2819 3.61858 12.809C4.7034 13.3361 5.91464 13.5474 7.11387 13.4187C8.31309 13.29 9.45191 12.8265 10.4002 12.0812C9.63443 11.4802 9.01547 10.7129 8.59013 9.83739C8.16478 8.96187 7.9442 8.00106 7.94508 7.02769Z" fill="#EB001B"/>
<path d="M20.8 7.02769C20.8 8.23375 20.4607 9.41549 19.8209 10.4378C19.181 11.4602 18.2664 12.2819 17.1816 12.809C16.0968 13.3361 14.8856 13.5474 13.6864 13.4187C12.4872 13.29 11.3484 12.8265 10.4002 12.0812C11.1652 11.4796 11.7837 10.7122 12.209 9.8368C12.6343 8.96142 12.8552 8.0009 12.8552 7.02769C12.8552 6.05447 12.6343 5.09396 12.209 4.21857C11.7837 3.34319 11.1652 2.57578 10.4002 1.97422C11.3484 1.2289 12.4872 0.765393 13.6864 0.636684C14.8856 0.507976 16.0968 0.719259 17.1816 1.24638C18.2664 1.77351 19.181 2.5952 19.8209 3.61754C20.4607 4.63988 20.8 5.82163 20.8 7.02769Z" fill="#F79E1B"/>
<path d="M20.1867 11.0107V10.8038H20.2702V10.7616H20.0577V10.8038H20.1412V11.0107H20.1867ZM20.5993 11.0107V10.7612H20.5342L20.4592 10.9328L20.3843 10.7612H20.3191V11.0107H20.3651V10.8225L20.4354 10.9847H20.4831L20.5533 10.8221V11.0107H20.5993Z" fill="#F79E1B"/>
</svg>
