<svg width="18" height="18" viewBox="0 0 18 18" fill="none" xmlns="http://www.w3.org/2000/svg">
<path d="M14.8337 17.3334H3.16699C2.50395 17.3334 1.86807 17.07 1.39923 16.6012C0.930384 16.1323 0.666992 15.4965 0.666992 14.8334V1.50008C0.666992 1.27907 0.75479 1.06711 0.91107 0.910826C1.06735 0.754545 1.27931 0.666748 1.50033 0.666748H13.167C13.388 0.666748 13.6 0.754545 13.7562 0.910826C13.9125 1.06711 14.0003 1.27907 14.0003 1.50008V11.5001H17.3337V14.8334C17.3337 15.4965 17.0703 16.1323 16.6014 16.6012C16.1326 17.07 15.4967 17.3334 14.8337 17.3334ZM14.0003 13.1667V14.8334C14.0003 15.0544 14.0881 15.2664 14.2444 15.4227C14.4007 15.579 14.6126 15.6667 14.8337 15.6667C15.0547 15.6667 15.2666 15.579 15.4229 15.4227C15.5792 15.2664 15.667 15.0544 15.667 14.8334V13.1667H14.0003ZM12.3337 15.6667V2.33341H2.33366V14.8334C2.33366 15.0544 2.42146 15.2664 2.57774 15.4227C2.73402 15.579 2.94598 15.6667 3.16699 15.6667H12.3337ZM4.00033 4.83342H10.667V6.50008H4.00033V4.83342ZM4.00033 8.16675H10.667V9.83342H4.00033V8.16675ZM4.00033 11.5001H8.16699V13.1667H4.00033V11.5001Z" fill="#4C4643"/>
</svg>
