<svg width="20" height="20" viewBox="0 0 20 20" fill="none" xmlns="http://www.w3.org/2000/svg">
<path d="M3.33301 18.3333C3.33301 16.5651 4.03539 14.8694 5.28563 13.6192C6.53587 12.369 8.23156 11.6666 9.99967 11.6666C11.7678 11.6666 13.4635 12.369 14.7137 13.6192C15.964 14.8694 16.6663 16.5651 16.6663 18.3333H14.9997C14.9997 17.0072 14.4729 15.7354 13.5352 14.7977C12.5975 13.86 11.3258 13.3333 9.99967 13.3333C8.67359 13.3333 7.40182 13.86 6.46414 14.7977C5.52646 15.7354 4.99967 17.0072 4.99967 18.3333H3.33301ZM9.99967 10.8333C7.23717 10.8333 4.99967 8.59575 4.99967 5.83325C4.99967 3.07075 7.23717 0.833252 9.99967 0.833252C12.7622 0.833252 14.9997 3.07075 14.9997 5.83325C14.9997 8.59575 12.7622 10.8333 9.99967 10.8333ZM9.99967 9.16658C11.8413 9.16658 13.333 7.67492 13.333 5.83325C13.333 3.99159 11.8413 2.49992 9.99967 2.49992C8.15801 2.49992 6.66634 3.99159 6.66634 5.83325C6.66634 7.67492 8.15801 9.16658 9.99967 9.16658Z" fill="#4C4643"/>
</svg>
