<svg width="18" height="17" viewBox="0 0 18 17" fill="none" xmlns="http://www.w3.org/2000/svg">
<path d="M8.99935 0.666748C10.3254 0.666748 11.5972 1.19353 12.5349 2.13121C13.4726 3.0689 13.9993 4.34067 13.9993 5.66675V6.50008H17.3327V8.16675H16.3602L15.7294 15.7359C15.712 15.9442 15.6171 16.1383 15.4633 16.2798C15.3096 16.4214 15.1083 16.5 14.8993 16.5001H3.09935C2.89039 16.5 2.6891 16.4214 2.53537 16.2798C2.38164 16.1383 2.28669 15.9442 2.26935 15.7359L1.63768 8.16675H0.666016V6.50008H3.99935V5.66675C3.99935 4.34067 4.52613 3.0689 5.46382 2.13121C6.4015 1.19353 7.67327 0.666748 8.99935 0.666748ZM14.6877 8.16675H3.31018L3.86602 14.8334H14.1319L14.6877 8.16675ZM9.83268 9.83341V13.1667H8.16602V9.83341H9.83268ZM6.49935 9.83341V13.1667H4.83268V9.83341H6.49935ZM13.166 9.83341V13.1667H11.4993V9.83341H13.166ZM8.99935 2.33341C8.14415 2.33341 7.32166 2.66211 6.70201 3.25152C6.08235 3.84092 5.71294 4.64595 5.67018 5.50008L5.66602 5.66675V6.50008H12.3327V5.66675C12.3327 4.81155 12.004 3.98906 11.4146 3.36941C10.8252 2.74975 10.0201 2.38034 9.16602 2.33758L8.99935 2.33341Z" fill="#4C4643"/>
</svg>
