 <svg width="20" height="14" viewBox="0 0 20 14" fill="none" xmlns="http://www.w3.org/2000/svg">
                    <g clip-path="url(#clip0_1503_10122)">
                    <path d="M1 0.999878H19V12.9999H1V0.999878Z" fill="white"/>
                    <path d="M1 0.999878H19V6.99988H1V0.999878Z" fill="#ED2939"/>
                    <path d="M4.80159 6.20823C6.02122 6.20823 7.00993 5.21953 7.00993 3.9999C7.00993 2.78027 6.02122 1.79156 4.80159 1.79156C3.58197 1.79156 2.59326 2.78027 2.59326 3.9999C2.59326 5.21953 3.58197 6.20823 4.80159 6.20823Z" fill="white"/>
                    <path d="M5.80159 6.20823C7.02122 6.20823 8.00993 5.21953 8.00993 3.9999C8.00993 2.78027 7.02122 1.79156 5.80159 1.79156C4.58197 1.79156 3.59326 2.78027 3.59326 3.9999C3.59326 5.21953 4.58197 6.20823 5.80159 6.20823Z" fill="#ED2939"/>
                    <path d="M6.01024 2.1582L5.67226 3.19839L6.55709 2.55552H5.46338L6.34821 3.19839L6.01024 2.1582Z" fill="white"/>
                    <path d="M7.76127 3.4308L6.66756 3.4308L7.55239 4.07367L7.21442 3.03348L6.87644 4.07367L7.76127 3.4308Z" fill="white"/>
                    <path d="M4.92721 5.48984L5.81205 4.84697L4.71833 4.84697L5.60316 5.48984L5.26519 4.44966L4.92721 5.48984Z" fill="white"/>
                    <path d="M7.09274 5.48983L6.75476 4.44965L6.41679 5.48983L7.30162 4.84696L6.20791 4.84696L7.09274 5.48983Z" fill="white"/>
                    <path d="M4.25834 3.43077L5.14318 4.07364L4.8052 3.03346L4.46722 4.07364L5.35206 3.43077L4.25834 3.43077Z" fill="white"/>
                    </g>
                    <rect x="0.5" y="0.499878" width="19" height="13" stroke="#DBD8D7"/>
                    <defs>
                    <clipPath id="clip0_1503_10122">
                    <rect x="1" y="0.999878" width="18" height="12" fill="white"/>
                    </clipPath>
                    </defs>
</svg>