<svg width="16" height="16" viewBox="0 0 16 16" fill="none" xmlns="http://www.w3.org/2000/svg">
<path d="M7.99967 14.6667C4.31767 14.6667 1.33301 11.682 1.33301 8.00004C1.33301 4.31804 4.31767 1.33337 7.99967 1.33337C11.6817 1.33337 14.6663 4.31804 14.6663 8.00004C14.6663 11.682 11.6817 14.6667 7.99967 14.6667ZM7.99967 13.3334C9.41416 13.3334 10.7707 12.7715 11.7709 11.7713C12.7711 10.7711 13.333 9.41453 13.333 8.00004C13.333 6.58555 12.7711 5.229 11.7709 4.2288C10.7707 3.22861 9.41416 2.66671 7.99967 2.66671C6.58519 2.66671 5.22863 3.22861 4.22844 4.2288C3.22824 5.229 2.66634 6.58555 2.66634 8.00004C2.66634 9.41453 3.22824 10.7711 4.22844 11.7713C5.22863 12.7715 6.58519 13.3334 7.99967 13.3334ZM7.33301 4.66671H8.66634V6.00004H7.33301V4.66671ZM7.33301 7.33337H8.66634V11.3334H7.33301V7.33337Z" fill="#24252B"/>
</svg>
