<svg width="26" height="9" viewBox="0 0 26 9" fill="none" xmlns="http://www.w3.org/2000/svg">
<path fill-rule="evenodd" clip-rule="evenodd" d="M6.6002 8.88992H4.38469L2.72333 2.3653C2.64447 2.06517 2.47704 1.79984 2.23075 1.67478C1.61611 1.36051 0.938816 1.1104 0.199951 0.984261V0.733063H3.76897C4.26155 0.733063 4.63098 1.1104 4.69255 1.54864L5.55456 6.25506L7.76899 0.733063H9.92293L6.6002 8.88992ZM11.154 8.88992H9.06163L10.7846 0.733063H12.8769L11.154 8.88992ZM15.5849 2.99152C15.6464 2.5522 16.0159 2.301 16.4469 2.301C17.1242 2.23793 17.862 2.36407 18.4777 2.67725L18.8471 0.921042C18.2314 0.669844 17.5541 0.543701 16.9395 0.543701C14.9087 0.543701 13.4309 1.67355 13.4309 3.24163C13.4309 4.43455 14.4777 5.06091 15.2165 5.43825C16.0159 5.81451 16.3237 6.0657 16.2622 6.44196C16.2622 7.00634 15.6464 7.25753 15.0318 7.25753C14.2929 7.25753 13.5541 7.06941 12.8779 6.75514L12.5084 8.51244C13.2473 8.82562 14.0467 8.95176 14.7855 8.95176C17.0626 9.01374 18.4777 7.88498 18.4777 6.19076C18.4777 4.05721 15.5849 3.93215 15.5849 2.99152ZM25.7991 8.88992L24.1378 0.733063H22.3533C21.9838 0.733063 21.6144 0.984261 21.4912 1.36051L18.4148 8.88992H20.5687L20.9987 7.69809H23.6452L23.8915 8.88992H25.7991ZM22.6614 2.9288L23.276 6.00299H21.5531L22.6614 2.9288Z" fill="#172B85"/>
</svg>
