<svg width="20" height="20" viewBox="0 0 20 20" fill="none" xmlns="http://www.w3.org/2000/svg">
<path d="M10.0002 3.77415C11.9577 2.01665 14.9827 2.07498 16.8685 3.96415C18.7535 5.85415 18.8185 8.86415 17.0652 10.8275L9.99852 17.9042L2.93352 10.8275C1.18019 8.86415 1.24602 5.84915 3.13019 3.96415C5.01769 2.07748 8.03685 2.01415 10.0002 3.77415ZM15.6885 5.14165C14.4385 3.88998 12.4219 3.83915 11.1135 5.01415L10.001 6.01248L8.88769 5.01498C7.57519 3.83832 5.56269 3.88998 4.30935 5.14332C3.06769 6.38498 3.00519 8.37248 4.14935 9.68582L9.99935 15.545L15.8494 9.68665C16.9944 8.37248 16.9319 6.38748 15.6885 5.14165Z" fill="#4C4643"/>
</svg>
