<svg width="32" height="32" viewBox="0 0 32 32" fill="none" xmlns="http://www.w3.org/2000/svg">
<path d="M2.6665 5.33333C2.6665 4.97971 2.80698 4.64057 3.05703 4.39052C3.30708 4.14048 3.64622 4 3.99984 4H27.9998C28.3535 4 28.6926 4.14048 28.9426 4.39052C29.1927 4.64057 29.3332 4.97971 29.3332 5.33333V12.6667C28.4491 12.6667 27.6013 13.0179 26.9761 13.643C26.351 14.2681 25.9998 15.1159 25.9998 16C25.9998 16.8841 26.351 17.7319 26.9761 18.357C27.6013 18.9821 28.4491 19.3333 29.3332 19.3333V26.6667C29.3332 27.0203 29.1927 27.3594 28.9426 27.6095C28.6926 27.8595 28.3535 28 27.9998 28H3.99984C3.64622 28 3.30708 27.8595 3.05703 27.6095C2.80698 27.3594 2.6665 27.0203 2.6665 26.6667V5.33333ZM10.7798 25.3333C10.9173 24.9427 11.1726 24.6043 11.5105 24.3649C11.8485 24.1256 12.2524 23.997 12.6665 23.997C13.0806 23.997 13.4845 24.1256 13.8225 24.3649C14.1604 24.6043 14.4157 24.9427 14.5532 25.3333H26.6665V21.376C25.6649 20.8796 24.8219 20.1133 24.2325 19.1634C23.6431 18.2135 23.3308 17.1179 23.3308 16C23.3308 14.8821 23.6431 13.7865 24.2325 12.8366C24.8219 11.8867 25.6649 11.1204 26.6665 10.624V6.66667H14.5532C14.4157 7.05733 14.1604 7.39569 13.8225 7.63506C13.4845 7.87442 13.0806 8.00297 12.6665 8.00297C12.2524 8.00297 11.8485 7.87442 11.5105 7.63506C11.1726 7.39569 10.9173 7.05733 10.7798 6.66667H5.33317V25.3333H10.7798ZM12.6665 14.6667C12.1361 14.6667 11.6274 14.456 11.2523 14.0809C10.8772 13.7058 10.6665 13.1971 10.6665 12.6667C10.6665 12.1362 10.8772 11.6275 11.2523 11.2525C11.6274 10.8774 12.1361 10.6667 12.6665 10.6667C13.1969 10.6667 13.7056 10.8774 14.0807 11.2525C14.4558 11.6275 14.6665 12.1362 14.6665 12.6667C14.6665 13.1971 14.4558 13.7058 14.0807 14.0809C13.7056 14.456 13.1969 14.6667 12.6665 14.6667ZM12.6665 21.3333C12.1361 21.3333 11.6274 21.1226 11.2523 20.7475C10.8772 20.3725 10.6665 19.8638 10.6665 19.3333C10.6665 18.8029 10.8772 18.2942 11.2523 17.9191C11.6274 17.544 12.1361 17.3333 12.6665 17.3333C13.1969 17.3333 13.7056 17.544 14.0807 17.9191C14.4558 18.2942 14.6665 18.8029 14.6665 19.3333C14.6665 19.8638 14.4558 20.3725 14.0807 20.7475C13.7056 21.1226 13.1969 21.3333 12.6665 21.3333Z" fill="#24252B"/>
</svg>
