<svg width="32" height="32" viewBox="0 0 32 32" fill="none" xmlns="http://www.w3.org/2000/svg">
<path d="M6.66683 12C7.02045 12 7.35959 12.1405 7.60964 12.3905C7.85969 12.6406 8.00016 12.9797 8.00016 13.3333C10.095 13.3302 12.1295 14.035 13.7735 15.3333H16.6668C18.4442 15.3333 20.0402 16.1067 21.1388 17.3333H25.3335C26.5938 17.333 27.8285 17.6899 28.8942 18.3627C29.9599 19.0355 30.8131 19.9967 31.3548 21.1347C28.2015 25.296 23.0962 28 17.3335 28C13.6135 28 10.4668 27.196 7.92016 25.7893C7.82689 26.0467 7.65648 26.2691 7.43218 26.4261C7.20789 26.5831 6.94062 26.6671 6.66683 26.6667H2.66683C2.31321 26.6667 1.97407 26.5262 1.72402 26.2761C1.47397 26.0261 1.3335 25.687 1.3335 25.3333V13.3333C1.3335 12.9797 1.47397 12.6406 1.72402 12.3905C1.97407 12.1405 2.31321 12 2.66683 12H6.66683ZM8.0015 16L8.00016 22.696L8.06016 22.7387C10.4535 24.4187 13.5708 25.3333 17.3335 25.3333C21.3388 25.3333 25.0655 23.792 27.7802 21.16L27.9575 20.9827L27.7975 20.8493C27.1679 20.3562 26.4047 20.0636 25.6068 20.0093L25.3335 20H22.5188C22.6148 20.4293 22.6668 20.8747 22.6668 21.3333V22.6667H10.6668V20L19.7202 19.9987L19.6748 19.8947C19.4193 19.3607 19.0263 18.9044 18.5361 18.5726C18.0458 18.2408 17.4762 18.0455 16.8855 18.0067L16.6668 18H12.7602C12.1406 17.3663 11.4005 16.8629 10.5835 16.5194C9.76653 16.176 8.88909 15.9994 8.00283 16H8.0015ZM5.3335 14.6667H4.00016V24H5.3335V14.6667ZM24.0002 6.66666C25.061 6.66666 26.0784 7.08809 26.8286 7.83824C27.5787 8.58838 28.0002 9.6058 28.0002 10.6667C28.0002 11.7275 27.5787 12.7449 26.8286 13.4951C26.0784 14.2452 25.061 14.6667 24.0002 14.6667C22.9393 14.6667 21.9219 14.2452 21.1717 13.4951C20.4216 12.7449 20.0002 11.7275 20.0002 10.6667C20.0002 9.6058 20.4216 8.58838 21.1717 7.83824C21.9219 7.08809 22.9393 6.66666 24.0002 6.66666ZM24.0002 9.33333C23.6465 9.33333 23.3074 9.47381 23.0574 9.72386C22.8073 9.9739 22.6668 10.313 22.6668 10.6667C22.6668 11.0203 22.8073 11.3594 23.0574 11.6095C23.3074 11.8595 23.6465 12 24.0002 12C24.3538 12 24.6929 11.8595 24.943 11.6095C25.193 11.3594 25.3335 11.0203 25.3335 10.6667C25.3335 10.313 25.193 9.9739 24.943 9.72386C24.6929 9.47381 24.3538 9.33333 24.0002 9.33333ZM14.6668 2.66666C15.7277 2.66666 16.7451 3.08809 17.4953 3.83824C18.2454 4.58838 18.6668 5.6058 18.6668 6.66666C18.6668 7.72753 18.2454 8.74495 17.4953 9.49509C16.7451 10.2452 15.7277 10.6667 14.6668 10.6667C13.606 10.6667 12.5885 10.2452 11.8384 9.49509C11.0883 8.74495 10.6668 7.72753 10.6668 6.66666C10.6668 5.6058 11.0883 4.58838 11.8384 3.83824C12.5885 3.08809 13.606 2.66666 14.6668 2.66666ZM14.6668 5.33333C14.3132 5.33333 13.9741 5.47381 13.724 5.72386C13.474 5.9739 13.3335 6.31304 13.3335 6.66666C13.3335 7.02029 13.474 7.35942 13.724 7.60947C13.9741 7.85952 14.3132 8 14.6668 8C15.0205 8 15.3596 7.85952 15.6096 7.60947C15.8597 7.35942 16.0002 7.02029 16.0002 6.66666C16.0002 6.31304 15.8597 5.9739 15.6096 5.72386C15.3596 5.47381 15.0205 5.33333 14.6668 5.33333Z" fill="#24252B"/>
</svg>
