<svg width="32" height="32" viewBox="0 0 32 32" fill="none" xmlns="http://www.w3.org/2000/svg">
<path d="M23.9998 13.3333C23.9998 11.2116 23.157 9.17677 21.6567 7.67648C20.1564 6.17619 18.1216 5.33333 15.9998 5.33333C13.8781 5.33333 11.8433 6.17619 10.343 7.67648C8.84269 9.17677 7.99984 11.2116 7.99984 13.3333V24H23.9998V13.3333ZM26.6665 24.8893L27.1998 25.6C27.2741 25.699 27.3194 25.8168 27.3305 25.9401C27.3416 26.0634 27.3182 26.1874 27.2628 26.2981C27.2074 26.4089 27.1223 26.502 27.017 26.5671C26.9117 26.6322 26.7903 26.6667 26.6665 26.6667H5.33317C5.20936 26.6667 5.088 26.6322 4.98268 26.5671C4.87737 26.502 4.79225 26.4089 4.73689 26.2981C4.68152 26.1874 4.65808 26.0634 4.6692 25.9401C4.68032 25.8168 4.72555 25.699 4.79984 25.6L5.33317 24.8893V13.3333C5.33317 10.5044 6.45698 7.79125 8.45737 5.79086C10.4578 3.79047 13.1709 2.66666 15.9998 2.66666C18.8288 2.66666 21.5419 3.79047 23.5423 5.79086C25.5427 7.79125 26.6665 10.5044 26.6665 13.3333V24.8893ZM12.6665 28H19.3332C19.3332 28.8841 18.982 29.7319 18.3569 30.357C17.7317 30.9821 16.8839 31.3333 15.9998 31.3333C15.1158 31.3333 14.2679 30.9821 13.6428 30.357C13.0177 29.7319 12.6665 28.8841 12.6665 28Z" fill="#24252B"/>
</svg>
