<svg width="32" height="32" viewBox="0 0 32 32" fill="none" xmlns="http://www.w3.org/2000/svg">
<path d="M14.5335 2.8L27.7321 4.68667L29.6175 17.8867L17.3615 30.1427C17.1114 30.3926 16.7723 30.5331 16.4188 30.5331C16.0652 30.5331 15.7262 30.3926 15.4761 30.1427L2.27612 16.9427C2.02616 16.6926 1.88574 16.3536 1.88574 16C1.88574 15.6465 2.02616 15.3074 2.27612 15.0573L14.5335 2.8ZM15.4761 5.62934L5.10412 16L16.4188 27.3133L26.7895 16.9427L25.3761 7.04267L15.4761 5.62934ZM18.3028 14.1147C17.8026 13.6143 17.5217 12.9357 17.5218 12.2282C17.5218 11.8779 17.5909 11.531 17.725 11.2074C17.8591 10.8837 18.0557 10.5897 18.3035 10.342C18.5512 10.0943 18.8453 9.89788 19.169 9.76388C19.4927 9.62987 19.8396 9.56093 20.1899 9.56099C20.8974 9.56112 21.5759 9.84229 22.0761 10.3427C22.5763 10.843 22.8573 11.5216 22.8571 12.2291C22.857 12.9367 22.5758 13.6151 22.0755 14.1153C21.5751 14.6155 20.8965 14.8965 20.189 14.8963C19.4815 14.8962 18.803 14.615 18.3028 14.1147Z" fill="#24252B"/>
</svg>
