<svg width="20" height="20" viewBox="0 0 20 20" fill="none" xmlns="http://www.w3.org/2000/svg">
<path d="M9.99984 16.6667C11.7679 16.6667 13.4636 15.9643 14.7139 14.7141C15.9641 13.4638 16.6665 11.7681 16.6665 10C16.6665 8.23191 15.9641 6.53622 14.7139 5.28598C13.4636 4.03573 11.7679 3.33335 9.99984 3.33335C8.23173 3.33335 6.53604 4.03573 5.28579 5.28598C4.03555 6.53622 3.33317 8.23191 3.33317 10C3.33317 11.7681 4.03555 13.4638 5.28579 14.7141C6.53604 15.9643 8.23173 16.6667 9.99984 16.6667ZM9.99984 18.3334C5.39734 18.3334 1.6665 14.6025 1.6665 10C1.6665 5.39752 5.39734 1.66669 9.99984 1.66669C14.6023 1.66669 18.3332 5.39752 18.3332 10C18.3332 14.6025 14.6023 18.3334 9.99984 18.3334ZM7.40817 10.975L5.3265 10.3259C4.8765 10.1884 4.874 9.87835 5.42734 9.65585L13.5382 6.52252C14.009 6.33085 14.2757 6.57335 14.1232 7.18085L12.7423 13.6975C12.6457 14.1617 12.3665 14.2725 11.979 14.0584L9.85317 12.485L8.86234 13.4417C8.76067 13.54 8.67817 13.6242 8.5215 13.645C8.36567 13.6667 8.23734 13.62 8.14317 13.3617L7.41817 10.9692L7.40817 10.9759V10.975Z" fill="#24252B"/>
</svg>
