<svg width="20" height="20" viewBox="0 0 20 20" fill="none" xmlns="http://www.w3.org/2000/svg">
<path d="M6.04402 15.4117L6.64735 15.7642C7.6648 16.3576 8.82201 16.6691 9.99985 16.6667C11.3184 16.6667 12.6073 16.2757 13.7037 15.5431C14.8 14.8106 15.6545 13.7694 16.159 12.5512C16.6636 11.3331 16.7957 9.99263 16.5384 8.69942C16.2812 7.40621 15.6462 6.21833 14.7139 5.28598C13.7815 4.35363 12.5937 3.71869 11.3005 3.46145C10.0072 3.20422 8.6668 3.33624 7.44863 3.84082C6.23045 4.34541 5.18926 5.19989 4.45672 6.29622C3.72418 7.39255 3.33318 8.68148 3.33318 10C3.33318 11.1967 3.64735 12.3442 4.23652 13.3534L4.58818 13.9567L4.04402 15.9575L6.04402 15.4117ZM1.66985 18.3334L2.79652 14.1934C2.05413 12.9207 1.6641 11.4733 1.66652 10C1.66652 5.39752 5.39735 1.66669 9.99985 1.66669C14.6023 1.66669 18.3332 5.39752 18.3332 10C18.3332 14.6025 14.6023 18.3334 9.99985 18.3334C8.52716 18.3357 7.0804 17.946 5.80818 17.2042L1.66985 18.3334ZM6.99235 6.09002C7.10402 6.08169 7.21652 6.08169 7.32818 6.08669C7.37318 6.09002 7.41818 6.09502 7.46318 6.10002C7.59568 6.11502 7.74152 6.19585 7.79068 6.30752C8.03902 6.87085 8.28068 7.43835 8.51402 8.00752C8.56568 8.13419 8.53485 8.29669 8.43652 8.45502C8.36889 8.56209 8.29573 8.66556 8.21735 8.76502C8.12318 8.88585 7.92068 9.10752 7.92068 9.10752C7.92068 9.10752 7.83818 9.20585 7.86985 9.32835C7.88152 9.37502 7.91985 9.44252 7.95485 9.49919L8.00402 9.57835C8.21735 9.93419 8.50402 10.295 8.85402 10.635C8.95402 10.7317 9.05152 10.8309 9.15652 10.9234C9.54652 11.2675 9.98818 11.5484 10.4648 11.7567L10.469 11.7584C10.5398 11.7892 10.5757 11.8059 10.679 11.85C10.7307 11.8717 10.784 11.8909 10.8382 11.905C10.8942 11.9193 10.9531 11.9166 11.0076 11.8973C11.062 11.878 11.1095 11.843 11.144 11.7967C11.7473 11.0659 11.8023 11.0184 11.8073 11.0184V11.02C11.8493 10.9809 11.8991 10.9513 11.9534 10.933C12.0077 10.9147 12.0653 10.9083 12.1223 10.9142C12.1723 10.9175 12.2232 10.9267 12.2698 10.9475C12.7123 11.15 13.4365 11.4659 13.4365 11.4659L13.9215 11.6834C14.0032 11.7225 14.0773 11.815 14.0799 11.9042C14.0832 11.96 14.0882 12.05 14.069 12.215C14.0423 12.4309 13.9773 12.69 13.9123 12.8259C13.8678 12.9186 13.8088 13.0035 13.7374 13.0775C13.6533 13.1658 13.5612 13.2462 13.4623 13.3175C13.4282 13.3432 13.3934 13.3682 13.3582 13.3925C13.2545 13.4583 13.148 13.5195 13.039 13.5759C12.8245 13.6898 12.5875 13.7552 12.3448 13.7675C12.1907 13.7759 12.0365 13.7875 11.8815 13.7792C11.8749 13.7792 11.4082 13.7067 11.4082 13.7067C10.2234 13.3951 9.12767 12.8112 8.20818 12.0017C8.01985 11.8359 7.84568 11.6575 7.66735 11.48C6.92568 10.7425 6.36568 9.94669 6.02568 9.19502C5.85166 8.82609 5.75765 8.42452 5.74985 8.01669C5.74641 7.51073 5.9118 7.01808 6.21985 6.61669C6.28068 6.53835 6.33818 6.45669 6.43735 6.36252C6.54318 6.26252 6.60985 6.20919 6.68235 6.17252C6.77874 6.12421 6.8839 6.09587 6.99152 6.08919L6.99235 6.09002Z" fill="#24252B"/>
</svg>
