<svg width="46" height="32" viewBox="0 0 46 32" fill="none" xmlns="http://www.w3.org/2000/svg">
<path d="M0 0H46V32H0V0Z" fill="white"></path>
<path d="M0 0H46V16H0V0Z" fill="#ED2939"></path>
<path d="M9.71537 13.8889C12.8322 13.8889 15.3589 11.2523 15.3589 8C15.3589 4.74766 12.8322 2.11111 9.71537 2.11111C6.59854 2.11111 4.07185 4.74766 4.07185 8C4.07185 11.2523 6.59854 13.8889 9.71537 13.8889Z" fill="white"></path>
<path d="M12.2709 13.8889C15.3878 13.8889 17.9144 11.2523 17.9144 8C17.9144 4.74766 15.3878 2.11111 12.2709 2.11111C9.1541 2.11111 6.62741 4.74766 6.62741 8C6.62741 11.2523 9.1541 13.8889 12.2709 13.8889Z" fill="#ED2939"></path>
<path d="M12.8033 3.08889L11.9396 5.86272L14.2009 4.1484H11.4058L13.6671 5.86272L12.8033 3.08889Z" fill="white"></path>
<path d="M17.2795 6.48238L14.4844 6.48238L16.7457 8.1967L15.8819 5.42288L15.0182 8.1967L17.2795 6.48238Z" fill="white"></path>
<path d="M10.0369 11.9732L12.2982 10.2589H9.50313L11.7644 11.9732L10.9007 9.19935L10.0369 11.9732Z" fill="white"></path>
<path d="M15.56 11.9627L14.7217 9.20334L13.8303 11.9812L16.111 10.2459L13.3122 10.2758L15.56 11.9627Z" fill="white"></path>
<path d="M8.33807 6.49387L10.5709 8.19232L9.73816 5.4141L8.85271 8.2109L11.1181 6.4638L8.33807 6.49387Z" fill="white"></path>
</svg>