<svg width="32" height="32" viewBox="0 0 32 32" fill="none" xmlns="http://www.w3.org/2000/svg">
<path d="M26.5839 10.6667H27.9999C28.7072 10.6667 29.3854 10.9476 29.8855 11.4477C30.3856 11.9478 30.6666 12.6261 30.6666 13.3333V18.6667C30.6666 19.3739 30.3856 20.0522 29.8855 20.5523C29.3854 21.0524 28.7072 21.3333 27.9999 21.3333H26.5839C26.2589 23.9111 25.0043 26.2816 23.0556 28C21.1069 29.7184 18.5981 30.6666 15.9999 30.6667V28C18.1216 28 20.1565 27.1572 21.6568 25.6569C23.1571 24.1566 23.9999 22.1217 23.9999 20V12C23.9999 9.87828 23.1571 7.84345 21.6568 6.34316C20.1565 4.84286 18.1216 4.00001 15.9999 4.00001C13.8782 4.00001 11.8434 4.84286 10.3431 6.34316C8.84277 7.84345 7.99992 9.87828 7.99992 12V21.3333H3.99992C3.29267 21.3333 2.6144 21.0524 2.1143 20.5523C1.6142 20.0522 1.33325 19.3739 1.33325 18.6667V13.3333C1.33325 12.6261 1.6142 11.9478 2.1143 11.4477C2.6144 10.9476 3.29267 10.6667 3.99992 10.6667H5.41592C5.74129 8.0892 6.99602 5.71904 8.94468 4.00091C10.8933 2.28278 13.402 1.33478 15.9999 1.33478C18.5978 1.33478 21.1065 2.28278 23.0552 4.00091C25.0038 5.71904 26.2585 8.0892 26.5839 10.6667ZM3.99992 13.3333V18.6667H5.33325V13.3333H3.99992ZM26.6666 13.3333V18.6667H27.9999V13.3333H26.6666ZM10.3466 21.0467L11.7599 18.7853C13.0307 19.5814 14.5004 20.0024 15.9999 20C17.4994 20.0024 18.9692 19.5814 20.2399 18.7853L21.6532 21.0467C19.9589 22.1082 17.9993 22.6697 15.9999 22.6667C14.0005 22.6697 12.0409 22.1082 10.3466 21.0467Z" fill="#24252B"/>
</svg>
