<svg width="32" height="32" viewBox="0 0 32 32" fill="none" xmlns="http://www.w3.org/2000/svg">
<path d="M6.66683 12C7.02045 12 7.35959 12.1405 7.60964 12.3905C7.85969 12.6406 8.00016 12.9797 8.00016 13.3334C10.095 13.3303 12.1295 14.035 13.7735 15.3334H16.6668C18.4442 15.3334 20.0402 16.1067 21.1388 17.3334H25.3335C26.5938 17.333 27.8285 17.6899 28.8942 18.3627C29.9599 19.0356 30.8131 19.9967 31.3548 21.1347C28.2015 25.296 23.0962 28 17.3335 28C13.6135 28 10.4668 27.196 7.92016 25.7894C7.82689 26.0468 7.65648 26.2691 7.43218 26.4261C7.20789 26.5832 6.94062 26.6672 6.66683 26.6667H2.66683C2.31321 26.6667 1.97407 26.5262 1.72402 26.2762C1.47397 26.0261 1.3335 25.687 1.3335 25.3334V13.3334C1.3335 12.9797 1.47397 12.6406 1.72402 12.3905C1.97407 12.1405 2.31321 12 2.66683 12H6.66683ZM8.0015 16L8.00016 22.696L8.06016 22.7387C10.4535 24.4187 13.5708 25.3334 17.3335 25.3334C21.3388 25.3334 25.0655 23.792 27.7802 21.16L27.9575 20.9827L27.7975 20.8494C27.1679 20.3562 26.4047 20.0636 25.6068 20.0094L25.3335 20H22.5188C22.6148 20.4294 22.6668 20.8747 22.6668 21.3334V22.6667H10.6668V20L19.7202 19.9987L19.6748 19.8947C19.4193 19.3607 19.0263 18.9044 18.5361 18.5726C18.0458 18.2408 17.4762 18.0455 16.8855 18.0067L16.6668 18H12.7602C12.1406 17.3663 11.4005 16.8629 10.5835 16.5195C9.76653 16.176 8.88909 15.9994 8.00283 16H8.0015ZM5.3335 14.6667H4.00016V24H5.3335V14.6667ZM24.0002 6.66669C25.061 6.66669 26.0784 7.08811 26.8286 7.83826C27.5787 8.58841 28.0002 9.60582 28.0002 10.6667C28.0002 11.7276 27.5787 12.745 26.8286 13.4951C26.0784 14.2453 25.061 14.6667 24.0002 14.6667C22.9393 14.6667 21.9219 14.2453 21.1717 13.4951C20.4216 12.745 20.0002 11.7276 20.0002 10.6667C20.0002 9.60582 20.4216 8.58841 21.1717 7.83826C21.9219 7.08811 22.9393 6.66669 24.0002 6.66669ZM24.0002 9.33335C23.6465 9.33335 23.3074 9.47383 23.0574 9.72388C22.8073 9.97393 22.6668 10.3131 22.6668 10.6667C22.6668 11.0203 22.8073 11.3594 23.0574 11.6095C23.3074 11.8595 23.6465 12 24.0002 12C24.3538 12 24.6929 11.8595 24.943 11.6095C25.193 11.3594 25.3335 11.0203 25.3335 10.6667C25.3335 10.3131 25.193 9.97393 24.943 9.72388C24.6929 9.47383 24.3538 9.33335 24.0002 9.33335ZM14.6668 2.66669C15.7277 2.66669 16.7451 3.08811 17.4953 3.83826C18.2454 4.58841 18.6668 5.60582 18.6668 6.66669C18.6668 7.72755 18.2454 8.74497 17.4953 9.49511C16.7451 10.2453 15.7277 10.6667 14.6668 10.6667C13.606 10.6667 12.5885 10.2453 11.8384 9.49511C11.0883 8.74497 10.6668 7.72755 10.6668 6.66669C10.6668 5.60582 11.0883 4.58841 11.8384 3.83826C12.5885 3.08811 13.606 2.66669 14.6668 2.66669ZM14.6668 5.33335C14.3132 5.33335 13.9741 5.47383 13.724 5.72388C13.474 5.97393 13.3335 6.31307 13.3335 6.66669C13.3335 7.02031 13.474 7.35945 13.724 7.6095C13.9741 7.85954 14.3132 8.00002 14.6668 8.00002C15.0205 8.00002 15.3596 7.85954 15.6096 7.6095C15.8597 7.35945 16.0002 7.02031 16.0002 6.66669C16.0002 6.31307 15.8597 5.97393 15.6096 5.72388C15.3596 5.47383 15.0205 5.33335 14.6668 5.33335Z" fill="#24252B"/>
</svg>
