<svg width="156" height="20" viewBox="0 0 156 20" fill="none" xmlns="http://www.w3.org/2000/svg">
<path d="M5.68026 2.25456H2.85693V17.7352H12.4638V15.424H5.68026V2.25456Z" fill="#231F20"/>
<path d="M26.7092 12.1751C26.7092 14.3549 25.4839 15.7292 23.274 15.7292C21.0642 15.7292 19.8601 14.3557 19.8601 12.1751V2.25456H17.0376V12.3277C17.0376 15.8166 19.2917 18.1065 23.274 18.1065C27.2564 18.1065 29.5325 15.8166 29.5325 12.3277V2.25456H26.7092V12.1751Z" fill="#231F20"/>
<path d="M56.4456 11.2374H62.9307V9.0568H56.4456V4.45642H63.7108V2.25456H53.623V17.7352H63.8639V15.5334H56.4456V11.2374Z" fill="#231F20"/>
<path d="M146.226 15.5334V11.2374H152.711V9.0568H146.226V4.45642H153.491V2.25456H143.403V17.7352H153.644V15.5334H146.226Z" fill="#231F20"/>
<path d="M79.9253 9.0505V11.2964V14.0214V17.7352H82.7478V2.25456H79.9253V9.0505Z" fill="#231F20"/>
<path d="M72.9441 9.0505V2.25456H70.1216V17.7352H72.9441V11.2964H78.4115L79.9251 9.0505H72.9441Z" fill="#231F20"/>
<path d="M95.9179 1.88799C91.4524 1.88799 88.5659 4.96382 88.5659 10C88.5659 15.0362 91.4524 18.112 95.9179 18.112C100.383 18.112 103.27 14.9937 103.27 10C103.27 5.0063 100.383 1.88799 95.9179 1.88799ZM95.9179 15.837C93.1467 15.837 91.495 13.5762 91.495 10C91.495 6.42386 93.1467 4.14884 95.9179 4.14884C98.6892 4.14884 100.341 6.35227 100.341 10C100.341 13.6477 98.7184 15.837 95.9179 15.837Z" fill="#231F20"/>
<path d="M118.48 12.1751C118.48 14.3549 117.255 15.7292 115.044 15.7292C112.833 15.7292 111.63 14.3557 111.63 12.1751V2.25456H108.807V12.3277C108.807 15.8166 111.061 18.1065 115.043 18.1065C119.025 18.1065 121.302 15.8166 121.302 12.3277V2.25456H118.478V12.1751H118.48Z" fill="#231F20"/>
<path d="M137.626 4.5225V2.25456H126.641V4.5225H134.475L126.335 15.4681V17.7352H137.955V15.4901H129.486L137.626 4.5225Z" fill="#231F20"/>
<path d="M43.2084 10.0928L41.2994 7.26715L37.9116 2.25456H34.695L39.6856 9.65544L34.2261 17.7352H37.4647L41.2994 12.0485L45.1333 17.7352H48.3719L43.2084 10.0928Z" fill="#231F20"/>
<path d="M47.9029 2.25456H44.6864L41.2993 7.26715H44.5229L47.9029 2.25456Z" fill="#231F20"/>
</svg>
