<svg width="32" height="32" viewBox="0 0 32 32" fill="none" xmlns="http://www.w3.org/2000/svg">
<path d="M3.99984 4H27.9998C28.3535 4 28.6926 4.14048 28.9426 4.39052C29.1927 4.64057 29.3332 4.97971 29.3332 5.33333V26.6667C29.3332 27.0203 29.1927 27.3594 28.9426 27.6095C28.6926 27.8595 28.3535 28 27.9998 28H3.99984C3.64622 28 3.30708 27.8595 3.05703 27.6095C2.80698 27.3594 2.6665 27.0203 2.6665 26.6667V5.33333C2.6665 4.97971 2.80698 4.64057 3.05703 4.39052C3.30708 4.14048 3.64622 4 3.99984 4ZM5.33317 6.66667V25.3333H26.6665V6.66667H5.33317ZM11.3332 18.6667H18.6665C18.8433 18.6667 19.0129 18.5964 19.1379 18.4714C19.2629 18.3464 19.3332 18.1768 19.3332 18C19.3332 17.8232 19.2629 17.6536 19.1379 17.5286C19.0129 17.4036 18.8433 17.3333 18.6665 17.3333H13.3332C12.4491 17.3333 11.6013 16.9821 10.9761 16.357C10.351 15.7319 9.99984 14.8841 9.99984 14C9.99984 13.1159 10.351 12.2681 10.9761 11.643C11.6013 11.0179 12.4491 10.6667 13.3332 10.6667H14.6665V8H17.3332V10.6667H20.6665V13.3333H13.3332C13.1564 13.3333 12.9868 13.4036 12.8618 13.5286C12.7367 13.6536 12.6665 13.8232 12.6665 14C12.6665 14.1768 12.7367 14.3464 12.8618 14.4714C12.9868 14.5964 13.1564 14.6667 13.3332 14.6667H18.6665C19.5506 14.6667 20.3984 15.0179 21.0235 15.643C21.6486 16.2681 21.9998 17.1159 21.9998 18C21.9998 18.8841 21.6486 19.7319 21.0235 20.357C20.3984 20.9821 19.5506 21.3333 18.6665 21.3333H17.3332V24H14.6665V21.3333H11.3332V18.6667Z" fill="#24252B"/>
</svg>
