<svg width="32" height="32" viewBox="0 0 32 32" fill="none" xmlns="http://www.w3.org/2000/svg">
<path d="M2.95068 18.7467C2.56722 16.9356 2.56722 15.0644 2.95068 13.2533C4.43068 13.4267 5.72401 12.9373 6.14534 11.9187C6.56801 10.8987 6.00134 9.63868 4.83068 8.71468C5.84006 7.16311 7.16311 5.84006 8.71468 4.83068C9.63734 6.00001 10.8987 6.56801 11.9187 6.14534C12.9387 5.72268 13.428 4.43068 13.2533 2.95068C15.0644 2.56722 16.9356 2.56722 18.7467 2.95068C18.5733 4.43068 19.0627 5.72401 20.0813 6.14534C21.1013 6.56801 22.3613 6.00134 23.2853 4.83068C24.8369 5.84006 26.16 7.16311 27.1693 8.71468C26 9.63734 25.432 10.8987 25.8547 11.9187C26.2773 12.9387 27.5693 13.428 29.0493 13.2533C29.4328 15.0644 29.4328 16.9356 29.0493 18.7467C27.5693 18.5733 26.276 19.0627 25.8547 20.0813C25.432 21.1013 25.9987 22.3613 27.1693 23.2853C26.16 24.8369 24.8369 26.16 23.2853 27.1693C22.3627 26 21.1013 25.432 20.0813 25.8547C19.0613 26.2773 18.572 27.5693 18.7467 29.0493C16.9356 29.4328 15.0644 29.4328 13.2533 29.0493C13.4267 27.5693 12.9373 26.276 11.9187 25.8547C10.8987 25.432 9.63868 25.9987 8.71468 27.1693C7.16311 26.16 5.84006 24.8369 4.83068 23.2853C6.00001 22.3627 6.56801 21.1013 6.14534 20.0813C5.72268 19.0613 4.43068 18.572 2.95068 18.7467ZM5.33334 16.28C6.80001 16.6867 8.00934 17.616 8.60934 19.0613C9.20801 20.508 9.00934 22.0213 8.26001 23.344C8.38801 23.48 8.52001 23.612 8.65601 23.74C9.98001 22.9907 11.492 22.7933 12.9387 23.3907C14.384 23.9907 15.3133 25.2 15.72 26.6667C15.9067 26.672 16.0933 26.672 16.28 26.6667C16.6867 25.2 17.616 23.9907 19.0613 23.3907C20.508 22.792 22.0213 22.9907 23.344 23.74C23.48 23.612 23.612 23.48 23.74 23.344C22.9907 22.02 22.7933 20.508 23.3907 19.0613C23.9907 17.616 25.2 16.6867 26.6667 16.28C26.672 16.0933 26.672 15.9067 26.6667 15.72C25.2 15.3133 23.9907 14.384 23.3907 12.9387C22.792 11.492 22.9907 9.97868 23.74 8.65601C23.6115 8.52054 23.4795 8.38849 23.344 8.26001C22.02 9.00934 20.508 9.20668 19.0613 8.60934C17.616 8.00934 16.6867 6.80001 16.28 5.33334C16.0934 5.3284 15.9066 5.3284 15.72 5.33334C15.3133 6.80001 14.384 8.00934 12.9387 8.60934C11.492 9.20801 9.97868 9.00934 8.65601 8.26001C8.52001 8.38801 8.38801 8.52001 8.26001 8.65601C9.00934 9.98001 9.20668 11.492 8.60934 12.9387C8.00934 14.384 6.80001 15.3133 5.33334 15.72C5.32801 15.9067 5.32801 16.0933 5.33334 16.28ZM16 20C14.9391 20 13.9217 19.5786 13.1716 18.8284C12.4214 18.0783 12 17.0609 12 16C12 14.9391 12.4214 13.9217 13.1716 13.1716C13.9217 12.4214 14.9391 12 16 12C17.0609 12 18.0783 12.4214 18.8284 13.1716C19.5786 13.9217 20 14.9391 20 16C20 17.0609 19.5786 18.0783 18.8284 18.8284C18.0783 19.5786 17.0609 20 16 20ZM16 17.3333C16.3536 17.3333 16.6928 17.1929 16.9428 16.9428C17.1929 16.6928 17.3333 16.3536 17.3333 16C17.3333 15.6464 17.1929 15.3072 16.9428 15.0572C16.6928 14.8072 16.3536 14.6667 16 14.6667C15.6464 14.6667 15.3072 14.8072 15.0572 15.0572C14.8072 15.3072 14.6667 15.6464 14.6667 16C14.6667 16.3536 14.8072 16.6928 15.0572 16.9428C15.3072 17.1929 15.6464 17.3333 16 17.3333Z" fill="#24252B"/>
</svg>
